<svg id="Capa_1" enable-background="new 0 0 512 512" height="512" viewBox="0 0 512 512" width="512" xmlns="http://www.w3.org/2000/svg"><g><path d="m409.6 34.133c18.851 0 34.133 15.282 34.133 34.133v409.6c0 18.851-15.282 34.133-34.133 34.133h-307.2c-18.851 0-34.133-15.282-34.133-34.133v-409.6c0-18.851 15.282-34.133 34.133-34.133h68.273l85.33 5.151 85.33-5.151z" fill="#d2a677"/><path d="m409.6 34.133h-23.694c18.851 0 34.133 15.282 34.133 34.133v409.6c0 18.851-15.282 34.133-34.133 34.133h23.694c18.851 0 34.133-15.282 34.133-34.133v-409.6c.001-18.851-15.281-34.133-34.133-34.133z" fill="#b38a68"/><path d="m110.934 68.267c-4.713 0-8.533 3.82-8.533 8.533v392.533c0 4.713 3.82 8.533 8.533 8.533h290.133c4.713 0 8.533-3.82 8.533-8.533v-392.533c0-4.713-3.821-8.533-8.533-8.533z" fill="#edf6ff"/><path d="m401.066 68.267h-23.694c4.713 0 8.534 3.82 8.534 8.533v392.533c0 4.713-3.82 8.533-8.534 8.533h23.694c4.713 0 8.533-3.82 8.533-8.533v-392.533c.001-4.713-3.82-8.533-8.533-8.533z" fill="#d8e2f3"/><path d="m297.803 34.133c-4.053 0-7.546-2.853-8.352-6.826-3.163-15.58-16.937-27.307-33.451-27.307s-30.288 11.727-33.451 27.308c-.806 3.972-4.299 6.826-8.352 6.826h-43.53v59.733c0 4.713 3.821 8.533 8.533 8.533h153.6c4.713 0 8.533-3.821 8.533-8.533v-59.734z" fill="#c9dbfd"/><g><path d="m256 50.393c-4.268 0-7.726-3.459-7.726-7.726v-8.533c0-4.268 3.459-7.726 7.726-7.726 4.268 0 7.726 3.459 7.726 7.726v8.533c.001 4.267-3.458 7.726-7.726 7.726z" fill="#aecafc"/></g><g fill="#aecafc"><path d="m265.756 27.308c.806 3.973 4.299 6.826 8.352 6.826h23.694c-4.054 0-7.546-2.853-8.352-6.826-3.162-15.581-16.936-27.308-33.45-27.308-4.166 0-8.157.748-11.847 2.114 10.94 4.05 19.239 13.543 21.603 25.194z"/><path d="m317.639 34.133v59.733c0 4.713-3.821 8.533-8.533 8.533h23.694c4.713 0 8.533-3.821 8.533-8.533v-59.733z"/></g><path d="m213.867 426.667h-69.333c-4.418 0-8-3.582-8-8v-18.133c0-4.418 3.582-8 8-8h69.333c4.418 0 8 3.582 8 8v18.133c0 4.418-3.582 8-8 8z" fill="#c9dbfd"/><g><path d="m367.467 426.667h-103.467c-4.418 0-8-3.582-8-8v-18.133c0-4.418 3.582-8 8-8h103.467c4.418 0 8 3.582 8 8v18.133c0 4.418-3.582 8-8 8z" fill="#817d84"/><path d="m367.225 392.533h-23.694c4.551 0 8.241 3.69 8.241 8.242v17.65c0 4.552-3.69 8.241-8.241 8.241h23.694c4.552 0 8.241-3.69 8.241-8.241v-17.65c.001-4.552-3.689-8.242-8.241-8.242z" fill="#756e79"/></g><path d="m213.625 392.533h-23.694c4.552 0 8.241 3.69 8.241 8.242v17.65c0 4.552-3.69 8.241-8.241 8.241h23.694c4.551 0 8.241-3.69 8.241-8.241v-17.65c.001-4.552-3.689-8.242-8.241-8.242z" fill="#aecafc"/><g><path d="m324.267 311.467c0-21.208-17.192-38.4-38.4-38.4h-59.733c-21.208 0-38.4 17.192-38.4 38.4v29.867c0 9.426 7.641 17.067 17.067 17.067h102.4c9.426 0 17.067-7.641 17.067-17.067v-29.867z" fill="#c9dbfd"/><path d="m324.267 311.467c0-13.748-7.225-25.809-18.086-32.593-5.892-3.68-48.275 14.598-48.275 14.598s-46.194-18.278-52.087-14.598c-10.861 6.783-18.086 18.844-18.086 32.593v29.867c0 9.426 7.641 17.067 17.067 17.067h102.4c9.426 0 17.067-7.641 17.067-17.067z" fill="#c1e3a0"/><path d="m285.867 273.067h-23.694c21.208 0 38.4 17.192 38.4 38.4v29.867c0 9.426-7.641 17.067-17.067 17.067h23.694c9.426 0 17.067-7.641 17.067-17.067v-29.867c0-21.208-17.193-38.4-38.4-38.4z" fill="#a8d4a4"/><path d="m245.561 250.917h20.878v44.298h-20.878z" fill="#f2cdbe"/><path d="m307.2 163.532v58.334c0 28.568-23.397 51.671-52.075 51.193-28.073-.469-50.325-23.959-50.325-52.036v-57.491z" fill="#f6e2c1"/><g><path d="m238.933 229.593c-4.268 0-7.726-3.459-7.726-7.726v-4.267c0-4.267 3.459-7.726 7.726-7.726 4.268 0 7.726 3.459 7.726 7.726v4.267c0 4.267-3.458 7.726-7.726 7.726z" fill="#817d84"/></g><g><path d="m273.067 229.593c-4.268 0-7.726-3.459-7.726-7.726v-4.267c0-4.267 3.459-7.726 7.726-7.726 4.268 0 7.726 3.459 7.726 7.726v4.267c0 4.267-3.459 7.726-7.726 7.726z" fill="#817d84"/></g><path d="m283.506 163.532v58.334c0 24.175-16.756 44.432-39.286 49.802 3.506.842 7.151 1.328 10.905 1.391 28.677.479 52.075-22.624 52.075-51.193v-58.334z" fill="#f2d0ac"/><path d="m281.6 136.533h-51.2c-18.851 0-34.133 15.282-34.133 34.133v25.6c0 4.713 3.82 8.533 8.533 8.533 16.514 0 30.289-11.727 33.451-27.308.806-3.972 4.299-6.826 8.352-6.826h18.794c4.053 0 7.546 2.853 8.352 6.826 3.162 15.581 16.937 27.308 33.451 27.308 4.713 0 8.533-3.82 8.533-8.533v-25.6c0-18.851-15.282-34.133-34.133-34.133z" fill="#817d84"/><path d="m281.6 136.533h-23.694c18.851 0 34.133 15.282 34.133 34.133v25.6c0 1.592-.444 3.078-1.204 4.353 4.86 2.661 10.433 4.18 16.365 4.18 4.713 0 8.533-3.82 8.533-8.533v-25.6c0-18.851-15.282-34.133-34.133-34.133z" fill="#756e79"/><path d="m278.756 307.2-17.636 13.227c-3.034 2.276-7.206 2.276-10.24 0l-17.636-13.227 5.688-22.912 17.068-11.222 21.245 12.173z" fill="#f1cb86"/><g fill="#ffe07d"><path d="m285.867 273.067h-29.867l24.672 37.008c3.9 5.849 12.803 4.739 15.146-1.889l10.359-29.304c-5.893-3.681-12.851-5.815-20.31-5.815z"/><path d="m205.824 278.881 10.359 29.304c2.343 6.628 11.246 7.739 15.146 1.889l24.671-37.007h-29.867c-7.459 0-14.417 2.134-20.309 5.814z"/></g></g></g></svg>